<svg xmlns="http://www.w3.org/2000/svg" xmlns:xlink="http://www.w3.org/1999/xlink" width="24" height="20" viewBox="0 0 24 20">
  <defs>
    <clipPath id="clip-dumper-full">
      <rect width="24" height="20"/>
    </clipPath>
  </defs>
  <g id="dumper-full" clip-path="url(#clip-dumper-full)">
    <g id="dumper" transform="translate(0 0.422)">
      <g id="Group_93717" data-name="Group 93717" transform="translate(0 2.803)">
        <g id="Group_93716" data-name="Group 93716" transform="translate(0 0)">
          <path id="Path_153438" data-name="Path 153438" d="M68.667,79.2H79.979l.709-2.126a.4.4,0,0,1,.38-.274h7.6a.4.4,0,0,1,.4.4v1.6a.4.4,0,0,1-.4.4H82.555l-2.309,6.926a.4.4,0,0,1-.38.274.419.419,0,0,1-.094-.011l-10-2.4a.4.4,0,0,1-.264-.21l-1.2-2.4a.4.4,0,0,1-.042-.179V79.6A.4.4,0,0,1,68.667,79.2Z" transform="translate(-68.267 -76.8)" fill="#00fd31"/>
        </g>
      </g>
      <g id="Group_93719" data-name="Group 93719" transform="translate(8.4 6.004)">
        <g id="Group_93718" data-name="Group 93718">
          <path id="Path_153439" data-name="Path 153439" d="M.044,152.084a.4.4,0,0,1,.434-.209l3.648.73,2.292-7.258a.4.4,0,0,1,.382-.28h4a.4.4,0,0,1,.347.2l1.519,2.658,2.643.755a.4.4,0,0,1,.29.385v4.8a.4.4,0,0,1-.247.37l-.966.4a.4.4,0,0,1-.538-.26,4,4,0,0,0-7.833.727.4.4,0,0,1-.4.364H1.6a.4.4,0,0,1-.4-.405,3.525,3.525,0,0,0-1.073-2.5A.4.4,0,0,1,.044,152.084ZM8.8,147.667a.2.2,0,0,0,.2.2h2.366a.2.2,0,0,0,.174-.3l-.914-1.6a.2.2,0,0,0-.173-.1H9a.2.2,0,0,0-.2.2Zm-2.066.2H7.8a.2.2,0,0,0,.2-.2v-1.6a.2.2,0,0,0-.2-.2H7.24a.2.2,0,0,0-.191.14l-.505,1.6A.2.2,0,0,0,6.734,147.867Z" transform="translate(0 -145.067)" fill="#00fd31"/>
        </g>
      </g>
      <path id="Subtraction_1" data-name="Subtraction 1" d="M3.188,0A3.173,3.173,0,0,0,1.405.544,3.2,3.2,0,0,0,.25,1.947,3.183,3.183,0,0,0,.544,4.97a3.2,3.2,0,0,0,.861.861,3.183,3.183,0,0,0,3.564,0,3.2,3.2,0,0,0,1.155-1.4,3.183,3.183,0,0,0-.294-3.023A3.2,3.2,0,0,0,4.428.251,3.166,3.166,0,0,0,3.188,0Zm0,4.266a1.074,1.074,0,1,1,.42-.085A1.073,1.073,0,0,1,3.188,4.266Z" transform="translate(21.573 19.578) rotate(180)" fill="#00fd31"/>
      <circle id="Ellipse_167" data-name="Ellipse 167" cx="0.656" cy="0.656" r="0.656" transform="translate(17.729 15.734)" fill="#00fd31"/>
      <path id="Subtraction_7" data-name="Subtraction 7" d="M3.188,0A3.173,3.173,0,0,0,1.405.544,3.2,3.2,0,0,0,.25,1.947,3.183,3.183,0,0,0,.544,4.97a3.2,3.2,0,0,0,.861.861,3.183,3.183,0,0,0,3.564,0,3.2,3.2,0,0,0,1.155-1.4,3.183,3.183,0,0,0-.294-3.023A3.2,3.2,0,0,0,4.428.251,3.166,3.166,0,0,0,3.188,0Zm0,4.266a1.074,1.074,0,1,1,.42-.085A1.073,1.073,0,0,1,3.188,4.266Z" transform="translate(8.823 19.578) rotate(180)" fill="#00fd31"/>
      <circle id="Ellipse_174" data-name="Ellipse 174" cx="0.656" cy="0.656" r="0.656" transform="translate(4.979 15.734)" fill="#00fd31"/>
      <path id="coal-2" d="M97.17,20.772l.2,1.041-.173-.081a.209.209,0,0,0-.2.013l-.716.366-1.259-.986a.208.208,0,0,0-.16-.046l-1.15.15-.763-.8,2-.92,2.226,1.262Zm-1.865,3.3.463-1.227,1.341-.686.474.221-.619,1.692Zm-4.076-.683.558.683h3.071l.547-1.45a.209.209,0,0,1,.1-.112l.362-.185-1.042-.816-2.335.305-1.262,1.575ZM88.886,22.4l1.5.612.865,1.059H86.908l.3-1.105,1.676-.565Zm2.579-2.913-1.65,0-1.436,1.483-.353,1.275.8-.27a.208.208,0,0,1,.156.009l1.607.657a.208.208,0,0,1,.084.061l.286.35,1.258-1.571a.209.209,0,0,1,.144-.077l.834-.109-1.73-1.812Z" transform="translate(-85.716 -19.485)" fill="#00fd31" fill-rule="evenodd"/>
    </g>
  </g>
</svg>
